<svg width="19" height="19" viewBox="0 0 19 19" fill="none" xmlns="http://www.w3.org/2000/svg">
<path id="Vector" d="M13.4599 9.31633L13.3746 9.41481L13.4918 9.47172C16.7631 11.0611 18.9 14.473 18.9 18.2963C18.9 18.6337 18.6381 18.9 18.3214 18.9H0.678571C0.362561 18.9 0.1 18.6336 0.1 18.2963C0.1 15.4746 1.27667 12.794 3.32822 10.9401C3.56881 10.7229 3.93256 10.7487 4.14207 10.9984L4.14209 10.9984C4.35417 11.2511 4.32844 11.6338 4.08585 11.8528L4.08579 11.8529C2.4616 13.3214 1.46371 15.379 1.28597 17.5846L1.27726 17.6926H1.38564H17.615H17.7233L17.7147 17.5846C17.4533 14.3082 15.3977 11.4726 12.4088 10.3048L12.361 10.2861L12.3179 10.3141C11.4984 10.8468 10.5346 11.1593 9.5 11.1593C6.56545 11.1593 4.17143 8.6819 4.17143 5.62963C4.17143 2.57736 6.56545 0.1 9.5 0.1C12.4346 0.1 14.8286 2.57736 14.8286 5.62963C14.8286 7.04662 14.3078 8.3367 13.4599 9.31633ZM9.5 1.30741C7.19598 1.30741 5.32857 3.2493 5.32857 5.62963C5.32857 8.00995 7.19598 9.95185 9.5 9.95185C11.804 9.95185 13.6714 8.00995 13.6714 5.62963C13.6714 3.2493 11.804 1.30741 9.5 1.30741Z" fill="#FEFEFE" stroke="#FEFEFE" stroke-width="0.2"/>
</svg>
