<svg width="17" height="17" viewBox="0 0 17 17" fill="none" xmlns="http://www.w3.org/2000/svg">
<path d="M16.8208 15.6927L13.2544 12.1263C13.0761 11.8291 13.195 11.5913 13.195 11.5913L13.2544 11.4724C15.5131 8.26262 14.9187 3.92346 11.8278 1.4864C8.79636 -0.772341 4.4572 -0.415697 1.90125 2.37801C0.593559 3.86402 -0.119728 5.76612 -0.000846609 7.72766C0.118035 9.74864 1.00964 11.5319 2.5551 12.8395C4.57608 14.5633 7.31034 15.0388 9.80685 14.0878C10.0446 13.9689 10.2229 13.7906 10.2824 13.5528C10.3418 13.3151 10.2824 13.0179 10.104 12.8395C9.86629 12.6018 9.56909 12.5423 9.27188 12.6612C8.26139 13.0179 7.13202 13.0773 6.06209 12.899C3.74391 12.4235 1.96069 10.5214 1.60405 8.20318C1.30685 6.30108 1.90125 4.45843 3.26838 3.15074C4.57608 1.84304 6.47818 1.24864 8.32083 1.54584C10.639 1.90248 12.4817 3.74514 12.9572 6.00388C13.3138 7.7871 12.8978 9.62976 11.7089 10.9969C11.2334 11.5319 11.2929 12.364 11.7684 12.8395L15.632 16.7032C15.7509 16.8221 15.9887 16.9409 16.167 16.9409C16.3453 16.9409 16.5831 16.8815 16.702 16.7032C17.0586 16.4654 17.0586 15.9899 16.8208 15.6927Z" fill="#FEFEFE"/>
</svg>
